<svg xmlns="http://www.w3.org/2000/svg" shape-rendering="geometricPrecision" text-rendering="geometricPrecision" image-rendering="optimizeQuality" fill-rule="evenodd" clip-rule="evenodd" viewBox="0 0 512 450.174"><path fill="#1A1A1A" fill-rule="nonzero" d="M60.508 75.174h84.854V33.743c0-18.6 15.143-33.743 33.743-33.743h153.789c18.55 0 33.743 15.193 33.743 33.743v41.431h84.855c33.308 0 60.508 27.199 60.508 60.508v253.984c0 16.654-6.803 31.786-17.763 42.745-10.959 10.96-26.091 17.763-42.745 17.763H60.508C27.2 450.174 0 422.974 0 389.666V135.682c0-33.309 27.2-60.508 60.508-60.508zm126.316 0h138.351V41.462H186.824v33.712z"/><path fill="#5C5576" fill-rule="nonzero" d="M176.458 75.303h-20.731v-41.56c0-12.88 10.498-23.378 23.377-23.378h153.79c12.879 0 23.378 10.499 23.378 23.378v41.445h-20.731V33.743c0-1.436-1.211-2.647-2.647-2.647h-153.79c-1.436 0-2.646 1.21-2.646 2.647v41.56z"/><path fill="#fff" d="M60.508 89.641h390.984c25.322 0 46.04 20.718 46.04 46.041v253.984c0 25.322-20.718 46.041-46.04 46.041H60.508c-25.322 0-46.04-20.719-46.04-46.041V135.682c0-25.323 20.718-46.041 46.04-46.041z"/><path fill="#EBEBEB" d="M495.964 123.799a45.71 45.71 0 011.568 11.883v253.984c0 25.322-20.718 46.041-46.04 46.041H60.508c-25.322 0-46.04-20.719-46.04-46.041V191.705c106.556-47.92 230.569-75.416 362.959-75.416 40.382 0 79.969 2.597 118.537 7.51z"/><path fill="#5C5576" fill-rule="nonzero" d="M255.999 126.276c37.816 0 72.054 15.329 96.837 40.112 24.783 24.781 40.112 59.02 40.112 96.836 0 37.815-15.329 72.054-40.112 96.837s-59.021 40.112-96.837 40.112c-37.815 0-72.053-15.329-96.836-40.112s-40.112-59.022-40.112-96.837c0-37.816 15.329-72.055 40.112-96.836 24.783-24.783 59.021-40.112 96.836-40.112z"/><circle fill="#fff" cx="255.999" cy="263.224" r="124.892"/><path fill="#DB2730" d="M233.274 202.664c-.051-6.941-.673-11.904 7.645-11.776l26.933.335c8.689-.052 11 2.802 10.9 11.235v37.227h35.687c6.701-.053 11.493-.697 11.369 7.919l-.324 27.897c.051 9-2.705 11.393-10.847 11.29h-35.885v37.198c.1 8.434-2.211 11.288-10.9 11.235l-26.933.336c-8.318.128-7.696-4.835-7.645-11.776v-36.993h-35.911c-8.142.103-10.898-2.29-10.847-11.29l-.324-27.897c-.123-8.616 4.668-7.972 11.369-7.919h35.713v-37.021z"/></svg>